<svg xmlns="http://www.w3.org/2000/svg" version="1.0" width="500.000000pt" height="500.000000pt" viewBox="0 0 500.000000 500.000000" preserveAspectRatio="xMidYMid meet">

<g transform="translate(0.000000,500.000000) scale(0.100000,-0.100000)" fill="#87cefa" stroke="none">
<path d="M2125 4160 c-77 -16 -124 -59 -159 -146 -14 -32 -70 -160 -126 -284 l-101 -225 -33 -183 c-18 -100 -36 -186 -40 -189 -7 -7 -96 -43 -107 -43 -3 0 -6 14 -6 32 0 50 -36 73 -137 88 -129 20 -141 10 -166 -145 -16 -102 -16 -102 -76 -124 -66 -25 -64 -25 -64 -3 0 36 -42 60 -132 77 -127 23 -144 10 -168 -128 l-16 -92 -280 -107 c-159 -61 -286 -116 -295 -127 -18 -22 -43 -151 -37 -195 2 -17 14 -37 30 -49 30 -23 11 -24 233 18 39 8 266 50 505 95 l436 80 78 -15 c44 -8 81 -17 84 -20 4 -3 -5 -65 -18 -138 -20 -113 -25 -177 -30 -455 -4 -177 -9 -324 -11 -325 -2 -2 -120 -48 -262 -102 -178 -68 -263 -105 -272 -119 -15 -24 -35 -123 -35 -176 0 -26 7 -43 24 -59 l24 -22 295 7 296 7 7 -28 c4 -16 2 -60 -4 -99 -14 -93 7 -135 71 -136 46 0 73 37 87 118 20 122 5 122 322 0 341 -133 336 -133 364 31 15 83 15 94 0 115 -8 14 -104 101 -213 196 -109 94 -199 177 -201 183 -1 7 40 134 93 282 82 232 100 293 125 434 16 90 31 165 32 167 2 1 41 -5 88 -13 84 -16 92 -20 555 -293 259 -152 485 -285 504 -294 38 -20 72 -15 99 14 21 23 48 166 38 204 -4 16 -86 94 -227 217 -121 105 -223 198 -226 205 -3 8 2 52 11 99 24 131 13 146 -125 170 -89 16 -105 13 -134 -21 l-21 -24 -47 43 -47 42 19 104 c28 153 16 171 -131 192 -86 13 -88 13 -113 -11 -14 -13 -25 -32 -25 -42 0 -26 -9 -22 -59 23 l-44 40 31 187 32 187 -15 195 c-8 107 -18 248 -21 312 -8 138 -28 187 -92 232 -44 31 -115 46 -167 36z m107 -120 c36 -28 46 -62 52 -180 2 -58 10 -193 17 -300 l12 -195 -42 -240 c-24 -132 -56 -314 -72 -405 -115 -667 -109 -639 -224 -964 -58 -164 -103 -306 -100 -316 3 -9 103 -102 221 -205 l216 -188 -6 -40 c-4 -23 -8 -42 -9 -44 -2 -1 -123 45 -271 103 -147 57 -276 104 -286 104 -10 0 -32 -17 -48 -37 l-30 -38 -7 38 c-12 65 -15 65 -338 58 l-287 -6 0 31 c0 16 6 37 12 46 7 9 128 60 268 113 148 56 262 105 273 117 15 18 17 49 17 329 l0 308 119 673 120 673 115 257 c64 142 116 262 116 267 0 5 14 21 31 35 38 32 95 35 131 6z"/>
<path d="M2025 3656 c-56 -24 -106 -102 -91 -141 10 -28 34 -15 57 33 19 38 32 50 64 61 37 12 45 12 78 -4 42 -20 67 -59 67 -103 0 -32 19 -55 36 -44 19 13 24 44 13 86 -26 98 -133 152 -224 112z"/>
</g>
</svg>