<?xml version="1.0" standalone="no"?>
<!DOCTYPE svg PUBLIC "-//W3C//DTD SVG 20010904//EN"
 "http://www.w3.org/TR/2001/REC-SVG-20010904/DTD/svg10.dtd">
<svg version="1.0" xmlns="http://www.w3.org/2000/svg"
 width="920.000000pt" height="512.000000pt" viewBox="0 0 920.000000 512.000000"
 preserveAspectRatio="xMidYMid meet">

<g transform="translate(0.000000,512.000000) scale(0.100000,-0.100000)"
fill="orange" stroke="none">
<path d="M5453 4383 c-13 -2 -23 -10 -23 -16 0 -7 48 -148 106 -315 58 -167
104 -305 102 -307 -2 -2 -73 -35 -158 -73 -127 -58 -158 -68 -172 -59 -9 7
-46 38 -82 70 l-65 59 -65 -7 -66 -7 26 -32 c54 -67 108 -141 130 -180 26 -44
30 -126 15 -249 l-7 -58 60 3 61 3 31 120 30 120 129 32 c179 44 194 46 200
31 2 -7 44 -147 94 -311 49 -165 92 -301 95 -304 11 -12 80 10 102 32 18 18
24 35 24 69 0 48 -40 355 -63 488 -13 69 -12 78 2 83 9 4 81 29 160 56 171 60
217 80 254 114 42 40 36 105 -16 162 -37 41 -72 39 -268 -17 -99 -29 -185 -48
-190 -43 -4 4 -49 79 -98 166 -106 184 -189 313 -224 345 -25 24 -80 35 -124
25z"/>
<path d="M3905 3624 c-44 -8 -98 -20 -120 -28 l-40 -13 60 -13 c122 -25 286
-96 421 -181 33 -22 64 -39 66 -39 15 0 144 247 134 257 -2 2 -39 11 -82 18
-101 18 -335 17 -439 -1z"/>
<path d="M4488 3473 c-26 -54 -59 -119 -74 -144 l-28 -47 131 -126 c71 -69
159 -161 193 -206 35 -44 65 -80 66 -80 11 0 359 263 359 271 0 16 -113 138
-183 199 -81 70 -175 131 -279 181 -136 65 -130 66 -185 -48z"/>
<path d="M3575 3474 c-94 -22 -135 -38 -130 -52 3 -8 94 -135 202 -283 l196
-268 41 32 c66 51 234 216 292 286 l54 64 -67 45 c-92 62 -232 126 -328 152
-78 20 -220 34 -260 24z"/>
<path d="M3309 3327 c-32 -39 -55 -83 -81 -156 -26 -72 -36 -279 -19 -389 10
-65 48 -221 55 -229 11 -12 294 126 406 197 78 51 80 53 66 74 -38 58 -388
531 -394 533 -4 1 -19 -13 -33 -30z"/>
<path d="M4279 3138 c-52 -68 -207 -224 -291 -294 l-77 -65 127 -174 c82 -113
132 -173 141 -170 19 7 500 359 501 366 0 8 -90 121 -139 174 -66 70 -210 205
-220 205 -5 0 -24 -19 -42 -42z"/>
<path d="M3067 3062 c-93 -141 -163 -343 -192 -551 l-6 -43 68 7 c64 6 200 33
215 41 3 2 -2 35 -13 72 -35 122 -52 258 -47 390 2 67 3 122 2 122 -1 0 -13
-17 -27 -38z"/>
<path d="M5023 2909 l-182 -133 20 -30 c46 -72 130 -227 165 -309 28 -65 41
-86 53 -83 53 16 226 46 265 46 l46 0 0 54 c0 125 -62 361 -129 493 -55 108
-33 111 -238 -38z"/>
<path d="M5841 2612 l-185 -207 114 -8 c62 -4 115 -9 118 -11 7 -8 -47 -193
-84 -287 -135 -345 -356 -659 -606 -861 -345 -279 -700 -378 -1218 -338 -374
29 -656 123 -845 280 -60 50 -136 143 -167 205 -11 22 -22 41 -23 43 -3 3
-127 -49 -138 -58 -24 -21 95 -192 197 -287 225 -207 557 -317 1039 -345 385
-23 659 27 952 173 367 182 673 516 886 964 65 136 141 349 160 445 l12 61
113 -7 113 -7 -122 226 c-67 125 -124 227 -127 226 -3 0 -88 -93 -189 -207z"/>
<path d="M3731 2655 c-93 -60 -248 -138 -356 -181 -38 -15 -72 -28 -73 -30
-15 -11 238 -465 258 -464 3 1 121 85 262 189 l257 188 -127 176 c-70 97 -129
176 -132 176 -3 0 -43 -24 -89 -54z"/>
<path d="M4497 2524 c-137 -100 -251 -185 -254 -187 -4 -4 167 -247 196 -279
4 -4 36 12 71 36 86 57 255 146 358 187 45 18 82 37 82 42 0 33 -174 368 -198
380 -4 2 -119 -78 -255 -179z"/>
<path d="M3085 2389 c-44 -10 -111 -21 -149 -24 l-69 -7 7 -81 c18 -211 108
-465 215 -606 l18 -24 181 132 181 132 -44 62 c-60 86 -157 262 -196 357 -22
54 -38 80 -48 79 -9 -1 -52 -10 -96 -20z"/>
<path d="M5310 2289 c-56 -7 -200 -38 -208 -44 -1 -1 9 -44 22 -96 35 -136 50
-262 44 -389 l-6 -110 31 47 c88 139 156 317 182 473 17 107 18 131 8 129 -5
-1 -37 -5 -73 -10z"/>
<path d="M3882 2074 l-252 -185 22 -32 c12 -18 81 -90 152 -161 l130 -129 40
49 c52 63 266 278 330 329 l48 40 -98 134 c-55 74 -103 136 -109 137 -5 2
-124 -80 -263 -182z"/>
<path d="M4914 2181 c-86 -33 -233 -111 -332 -175 l-72 -46 38 -53 c21 -28 96
-131 167 -227 71 -96 146 -199 167 -228 l39 -52 23 27 c32 39 73 119 92 178
21 70 29 254 15 356 -13 91 -52 249 -61 249 -3 -1 -37 -13 -76 -29z"/>
<path d="M4365 1849 c-94 -77 -266 -250 -313 -316 l-22 -31 63 -40 c257 -166
526 -222 694 -146 l42 19 -202 277 c-111 152 -204 277 -207 277 -3 0 -27 -18
-55 -40z"/>
<path d="M3370 1699 c-91 -66 -171 -126 -179 -134 -11 -11 -6 -21 30 -60 60
-65 187 -163 284 -218 97 -56 214 -103 224 -91 4 5 18 34 30 64 13 30 43 89
67 131 24 42 44 80 44 85 0 5 -39 43 -86 84 -48 41 -123 117 -167 167 -44 51
-80 93 -81 93 -1 0 -76 -54 -166 -121z"/>
<path d="M3923 1343 c-59 -106 -93 -182 -83 -188 20 -12 211 -35 295 -35 93 0
243 20 330 43 l50 14 -55 12 c-135 29 -295 96 -418 174 -40 26 -74 47 -77 47
-2 0 -21 -30 -42 -67z"/>
</g>
</svg>
